<svg width="900" height="900" viewBox="0 0 900 900" xmlns="http://www.w3.org/2000/svg" style="background:#0d1117;font-family:Segoe UI, Roboto, system-ui;">
<text x="40" y="40" fill="#58a6ff" font-size="24" font-weight="700">Cognitive / Technical Scorecard</text>
<text x="40" y="64" fill="#8b949e" font-size="12">Interaction-derived metrics · media, sigma, z-scores y normalización</text>
<rect x="40" y="80" width="260" height="72" rx="10" fill="#0b1220" stroke="#21262d" />
<text x="60" y="110" fill="#c9d1d9" font-size="12">Overall Score</text>
<text x="60" y="142" fill="#f0f6fc" font-size="32" font-weight="700">88.54</text>
<text x="40" y="152" fill="#f0f6fc" font-size="16">Core KPIs (normalizados 0–100)</text>
<text x="40" y="172" fill="#c9d1d9" font-size="12">Conversation Depth (turns) — value: 6.8 · μ=3.0 · σ=1.2 · z=3.167</text>
<rect x="40" y="180" width="420" height="14" rx="7" fill="#1f2933"/>
<rect x="40" y="180" width="409" height="14" rx="7" fill="#58a6ff"/>
<text x="474" y="192" fill="#c9d1d9" font-size="12">97.50</text>
<text x="40" y="232" fill="#c9d1d9" font-size="12">Correction Rate (fraction) — value: 0.35 · μ=0.12 · σ=0.08 · z=2.875</text>
<rect x="40" y="240" width="420" height="14" rx="7" fill="#1f2933"/>
<rect x="40" y="240" width="391" height="14" rx="7" fill="#58a6ff"/>
<text x="474" y="252" fill="#c9d1d9" font-size="12">93.12</text>
<text x="40" y="292" fill="#c9d1d9" font-size="12">Technical Complexity (0-5) — value: 4.8 · μ=2.5 · σ=0.9 · z=2.556</text>
<rect x="40" y="300" width="420" height="14" rx="7" fill="#1f2933"/>
<rect x="40" y="300" width="371" height="14" rx="7" fill="#58a6ff"/>
<text x="474" y="312" fill="#c9d1d9" font-size="12">88.33</text>
<text x="40" y="352" fill="#c9d1d9" font-size="12">Abstraction Level (0-5) — value: 4.2 · μ=2.8 · σ=0.7 · z=2.000</text>
<rect x="40" y="360" width="420" height="14" rx="7" fill="#1f2933"/>
<rect x="40" y="360" width="336" height="14" rx="7" fill="#58a6ff"/>
<text x="474" y="372" fill="#c9d1d9" font-size="12">80.00</text>
<text x="40" y="412" fill="#c9d1d9" font-size="12">Iteration Intensity (0-5) — value: 4.1 · μ=2.5 · σ=0.8 · z=2.000</text>
<rect x="40" y="420" width="420" height="14" rx="7" fill="#1f2933"/>
<rect x="40" y="420" width="336" height="14" rx="7" fill="#58a6ff"/>
<text x="474" y="432" fill="#c9d1d9" font-size="12">80.00</text>
<text x="40" y="472" fill="#c9d1d9" font-size="12">Message Length Score (0-100) — value: 90 · μ=40 · σ=20 · z=2.500</text>
<rect x="40" y="480" width="420" height="14" rx="7" fill="#1f2933"/>
<rect x="40" y="480" width="367" height="14" rx="7" fill="#58a6ff"/>
<text x="474" y="492" fill="#c9d1d9" font-size="12">87.50</text>
<rect x="40" y="550" width="520" height="120" rx="8" fill="#071018" stroke="#26313a"/>
<text x="52" y="574" fill="#c9d1d9" font-size="13" font-weight="600">Behavioral signals (observed)</text>
<text x="52" y="598" fill="#8b949e" font-size="12">• Frecuente corrección de supuestos</text>
<text x="52" y="618" fill="#8b949e" font-size="12">• Peticiones explícitas de razonamiento y verificación</text>
<text x="52" y="638" fill="#8b949e" font-size="12">• Baja tolerancia para respuestas superficiales; iteración constante</text>
<polygon points="630.00,320.00 664.64,340.00 664.64,380.00 630.00,400.00 595.36,380.00 595.36,340.00" fill="none" stroke="#1f2933" stroke-width="1"/>
<polygon points="630.00,280.00 699.28,320.00 699.28,400.00 630.00,440.00 560.72,400.00 560.72,320.00" fill="none" stroke="#1f2933" stroke-width="1"/>
<polygon points="630.00,240.00 733.92,300.00 733.92,420.00 630.00,480.00 526.08,420.00 526.08,300.00" fill="none" stroke="#1f2933" stroke-width="1"/>
<polygon points="630.00,200.00 768.56,280.00 768.56,440.00 630.00,520.00 491.44,440.00 491.44,280.00" fill="none" stroke="#1f2933" stroke-width="1"/>
<polygon points="630.00,165.00 791.30,266.88 783.00,448.33 630.00,520.00 491.44,440.00 478.45,272.50" fill="#58a6ff" fill-opacity="0.18" stroke="#58a6ff" stroke-width="2"/>
<line x1="630" y1="360" x2="630.00" y2="160.00" stroke="#111827" stroke-width="1"/>
<text x="630.00" y="134.00" fill="#c9d1d9" font-size="11" text-anchor="middle">Conversation Depth (turns)</text>
<line x1="630" y1="360" x2="803.21" y2="260.00" stroke="#111827" stroke-width="1"/>
<text x="825.72" y="247.00" fill="#c9d1d9" font-size="11" text-anchor="middle">Correction Rate (fraction)</text>
<line x1="630" y1="360" x2="803.21" y2="460.00" stroke="#111827" stroke-width="1"/>
<text x="825.72" y="473.00" fill="#c9d1d9" font-size="11" text-anchor="middle">Technical Complexity (0-5)</text>
<line x1="630" y1="360" x2="630.00" y2="560.00" stroke="#111827" stroke-width="1"/>
<text x="630.00" y="586.00" fill="#c9d1d9" font-size="11" text-anchor="middle">Abstraction Level (0-5)</text>
<line x1="630" y1="360" x2="456.79" y2="460.00" stroke="#111827" stroke-width="1"/>
<text x="434.28" y="473.00" fill="#c9d1d9" font-size="11" text-anchor="middle">Iteration Intensity (0-5)</text>
<line x1="630" y1="360" x2="456.79" y2="260.00" stroke="#111827" stroke-width="1"/>
<text x="434.28" y="247.00" fill="#c9d1d9" font-size="11" text-anchor="middle">Msg Length</text>
<text x="40" y="630" fill="#8b949e" font-size="12">Normalización: z = (value - μ)/σ  ·  score = clip(0,100, 50 + 15·z)</text>
<text x="40" y="648" fill="#6b7280" font-size="11">Medias y sigmas son estimaciones de baseline; sustituye por tus datos si los tienes.</text>
</svg>