<svg width="900" height="900" viewBox="0 0 900 900" xmlns="http://www.w3.org/2000/svg" style="background:#0d1117;font-family:Segoe UI, Roboto, system-ui;">
<text x="40" y="40" fill="#58a6ff" font-size="24" font-weight="700">Cognitive / Technical Scorecard</text>
<text x="40" y="64" fill="#8b949e" font-size="12">Interaction-derived metrics · media, sigma, z-scores y normalización</text>
<rect x="40" y="70" width="140" height="70" rx="10" fill="#0b1220" stroke="#21262d" />
<text x="60" y="90" fill="#c9d1d9" font-size="12">Overall Score</text>
<text x="60" y="122" fill="#f0f6fc" font-size="28" font-weight="700">88.54</text>
<text x="40" y="172" fill="#f0f6fc" font-size="16">Core KPIs (normalizados 0–100)</text>
<text x="40" y="192" fill="#c9d1d9" font-size="12">Conversation Depth (turns) — value: 6.8 · μ=3.0 · σ=1.2 · z=3.167</text>
<rect x="40" y="200" width="360" height="14" rx="7" fill="#1f2933"/>
<rect x="40" y="200" width="351" height="14" rx="7" fill="#58a6ff"/>
<text x="414" y="212" fill="#c9d1d9" font-size="12">97.50</text>
<text x="40" y="252" fill="#c9d1d9" font-size="12">Correction Rate (fraction) — value: 0.35 · μ=0.12 · σ=0.08 · z=2.875</text>
<rect x="40" y="260" width="360" height="14" rx="7" fill="#1f2933"/>
<rect x="40" y="260" width="335" height="14" rx="7" fill="#58a6ff"/>
<text x="414" y="272" fill="#c9d1d9" font-size="12">93.12</text>
<text x="40" y="312" fill="#c9d1d9" font-size="12">Technical Complexity (0-5) — value: 4.8 · μ=2.5 · σ=0.9 · z=2.556</text>
<rect x="40" y="320" width="360" height="14" rx="7" fill="#1f2933"/>
<rect x="40" y="320" width="318" height="14" rx="7" fill="#58a6ff"/>
<text x="414" y="332" fill="#c9d1d9" font-size="12">88.33</text>
<text x="40" y="372" fill="#c9d1d9" font-size="12">Abstraction Level (0-5) — value: 4.2 · μ=2.8 · σ=0.7 · z=2.000</text>
<rect x="40" y="380" width="360" height="14" rx="7" fill="#1f2933"/>
<rect x="40" y="380" width="288" height="14" rx="7" fill="#58a6ff"/>
<text x="414" y="392" fill="#c9d1d9" font-size="12">80.00</text>
<text x="40" y="432" fill="#c9d1d9" font-size="12">Iteration Intensity (0-5) — value: 4.1 · μ=2.5 · σ=0.8 · z=2.000</text>
<rect x="40" y="440" width="360" height="14" rx="7" fill="#1f2933"/>
<rect x="40" y="440" width="288" height="14" rx="7" fill="#58a6ff"/>
<text x="414" y="452" fill="#c9d1d9" font-size="12">80.00</text>
<text x="40" y="492" fill="#c9d1d9" font-size="12">Message Length Score (0-100) — value: 90 · μ=40 · σ=20 · z=2.500</text>
<rect x="40" y="500" width="360" height="14" rx="7" fill="#1f2933"/>
<rect x="40" y="500" width="315" height="14" rx="7" fill="#58a6ff"/>
<text x="414" y="512" fill="#c9d1d9" font-size="12">87.50</text>
<rect x="40" y="550" width="460" height="120" rx="8" fill="#071018" stroke="#26313a"/>
<text x="52" y="574" fill="#c9d1d9" font-size="13" font-weight="600">Behavioral signals (observed)</text>
<text x="52" y="598" fill="#8b949e" font-size="12">• Frecuente corrección de supuestos</text>
<text x="52" y="618" fill="#8b949e" font-size="12">• Peticiones explícitas de razonamiento y verificación</text>
<text x="52" y="638" fill="#8b949e" font-size="12">• Baja tolerancia para respuestas superficiales; iteración constante</text>
<polygon points="680.00,328.00 707.71,344.00 707.71,376.00 680.00,392.00 652.29,376.00 652.29,344.00" fill="none" stroke="#1f2933" stroke-width="1"/>
<polygon points="680.00,296.00 735.43,328.00 735.43,392.00 680.00,424.00 624.57,392.00 624.57,328.00" fill="none" stroke="#1f2933" stroke-width="1"/>
<polygon points="680.00,264.00 763.14,312.00 763.14,408.00 680.00,456.00 596.86,408.00 596.86,312.00" fill="none" stroke="#1f2933" stroke-width="1"/>
<polygon points="680.00,232.00 790.85,296.00 790.85,424.00 680.00,488.00 569.15,424.00 569.15,296.00" fill="none" stroke="#1f2933" stroke-width="1"/>
<polygon points="680.00,204.00 809.04,285.50 802.40,430.67 680.00,488.00 569.15,424.00 558.76,290.00" fill="#58a6ff" fill-opacity="0.18" stroke="#58a6ff" stroke-width="2"/>
<line x1="680" y1="360" x2="680.00" y2="200.00" stroke="#111827" stroke-width="1"/>
<text x="680.00" y="174.00" fill="#c9d1d9" font-size="11" text-anchor="middle">Conversation Depth (turns)</text>
<line x1="680" y1="360" x2="818.56" y2="280.00" stroke="#111827" stroke-width="1"/>
<text x="841.08" y="267.00" fill="#c9d1d9" font-size="11" text-anchor="middle">Correction Rate (fraction)</text>
<line x1="680" y1="360" x2="818.56" y2="440.00" stroke="#111827" stroke-width="1"/>
<text x="841.08" y="453.00" fill="#c9d1d9" font-size="11" text-anchor="middle">Technical Complexity (0-5)</text>
<line x1="680" y1="360" x2="680.00" y2="520.00" stroke="#111827" stroke-width="1"/>
<text x="680.00" y="546.00" fill="#c9d1d9" font-size="11" text-anchor="middle">Abstraction Level (0-5)</text>
<line x1="680" y1="360" x2="541.44" y2="440.00" stroke="#111827" stroke-width="1"/>
<text x="518.92" y="453.00" fill="#c9d1d9" font-size="11" text-anchor="middle">Iteration Intensity (0-5)</text>
<line x1="680" y1="360" x2="541.44" y2="280.00" stroke="#111827" stroke-width="1"/>
<text x="518.92" y="267.00" fill="#c9d1d9" font-size="11" text-anchor="middle">Msg Length</text>
<text x="40" y="690" fill="#8b949e" font-size="12">Normalización: z = (value - μ)/σ  ·  score = clip(0,100, 50 + 15·z)</text>
<text x="40" y="708" fill="#6b7280" font-size="11">Medias y sigmas son estimaciones de baseline; sustituye por tus datos si los tienes.</text>
</svg>